<?xml version="1.0" encoding="utf-8" standalone="no"?>
<!DOCTYPE svg PUBLIC "-//W3C//DTD SVG 1.1//EN"
  "http://www.w3.org/Graphics/SVG/1.1/DTD/svg11.dtd">
<svg xmlns:xlink="http://www.w3.org/1999/xlink" width="864pt" height="460.8pt" viewBox="0 0 864 460.8" xmlns="http://www.w3.org/2000/svg" version="1.1">
 <metadata>
  <rdf:RDF xmlns:dc="http://purl.org/dc/elements/1.1/" xmlns:cc="http://creativecommons.org/ns#" xmlns:rdf="http://www.w3.org/1999/02/22-rdf-syntax-ns#">
   <cc:Work>
    <dc:type rdf:resource="http://purl.org/dc/dcmitype/StillImage"/>
    <dc:date>2026-10-01T13:21:45.850550</dc:date>
    <dc:format>image/svg+xml</dc:format>
    <dc:creator>
     <cc:Agent>
      <dc:title>Matplotlib v3.11.2, https://matplotlib.org/</dc:title>
     </cc:Agent>
    </dc:creator>
   </cc:Work>
  </rdf:RDF>
 </metadata>
 <defs>
  <style type="text/css">*{stroke-linejoin: round; stroke-linecap: butt}</style>
 </defs>
 <g id="figure_1">
  <g id="patch_1">
   <path d="M 0 460.8
L 864 460.8
L 864 0
L 0 0
z
" style="fill: #fffaf0"/>
  </g>
  <g id="axes_1">
   <g id="patch_2">
    <path d="M 77.76 354.816
L 829.44 354.816
L 829.44 110.592
L 77.76 110.592
z
" style="fill: #fffaf0"/>
   </g>
   <g id="FillBetweenPolyCollection_1">
    <defs>
     <path id="m182c9b8756" d="M 97.033846 -105.984
L 97.033846 -277.791061
L 161.28 -243.708245
L 225.526154 -284.086613
L 289.772308 -212.266667
L 354.018462 -283.163989
L 418.264615 -224.495957
L 482.510769 -245.897216
L 546.756923 -282.458453
L 611.003077 -304.963243
L 675.249231 -274.064384
L 739.495385 -321.859925
L 803.741538 -314.714112
L 803.741538 -105.984
L 803.741538 -105.984
L 739.495385 -105.984
L 675.249231 -105.984
L 611.003077 -105.984
L 546.756923 -105.984
L 482.510769 -105.984
L 418.264615 -105.984
L 354.018462 -105.984
L 289.772308 -105.984
L 225.526154 -105.984
L 161.28 -105.984
L 97.033846 -105.984
z
" style="stroke: #296a58; stroke-opacity: 0.08"/>
    </defs>
    <g clip-path="url(#pe3115c5a43)">
     <use xlink:href="#m182c9b8756" x="0" y="460.8" style="fill: #296a58; fill-opacity: 0.08; stroke: #296a58; stroke-opacity: 0.08"/>
    </g>
   </g>
   <g id="matplotlib.axis_1">
    <g id="xtick_1">
     <g id="line2d_1"/>
     <g id="text_1">
      <text style="font-size: 11px; font-family: 'DejaVu Sans'" transform="translate(58.953864 395.245747) rotate(-40)">2012–13</text>
     </g>
    </g>
    <g id="xtick_2">
     <g id="line2d_2"/>
     <g id="text_2">
      <text style="font-size: 11px; font-family: 'DejaVu Sans'" transform="translate(123.200018 395.245747) rotate(-40)">2013–14</text>
     </g>
    </g>
    <g id="xtick_3">
     <g id="line2d_3"/>
     <g id="text_3">
      <text style="font-size: 11px; font-family: 'DejaVu Sans'" transform="translate(187.446172 395.245747) rotate(-40)">2014–15</text>
     </g>
    </g>
    <g id="xtick_4">
     <g id="line2d_4"/>
     <g id="text_4">
      <text style="font-size: 11px; font-family: 'DejaVu Sans'" transform="translate(251.692326 395.245747) rotate(-40)">2015–16</text>
     </g>
    </g>
    <g id="xtick_5">
     <g id="line2d_5"/>
     <g id="text_5">
      <text style="font-size: 11px; font-family: 'DejaVu Sans'" transform="translate(315.938479 395.245747) rotate(-40)">2016–17</text>
     </g>
    </g>
    <g id="xtick_6">
     <g id="line2d_6"/>
     <g id="text_6">
      <text style="font-size: 11px; font-family: 'DejaVu Sans'" transform="translate(380.184633 395.245747) rotate(-40)">2017–18</text>
     </g>
    </g>
    <g id="xtick_7">
     <g id="line2d_7"/>
     <g id="text_7">
      <text style="font-size: 11px; font-family: 'DejaVu Sans'" transform="translate(444.430787 395.245747) rotate(-40)">2018–19</text>
     </g>
    </g>
    <g id="xtick_8">
     <g id="line2d_8"/>
     <g id="text_8">
      <text style="font-size: 11px; font-family: 'DejaVu Sans'" transform="translate(508.676941 395.245747) rotate(-40)">2019–20</text>
     </g>
    </g>
    <g id="xtick_9">
     <g id="line2d_9"/>
     <g id="text_9">
      <text style="font-size: 11px; font-family: 'DejaVu Sans'" transform="translate(572.923095 395.245747) rotate(-40)">2020–21</text>
     </g>
    </g>
    <g id="xtick_10">
     <g id="line2d_10"/>
     <g id="text_10">
      <text style="font-size: 11px; font-family: 'DejaVu Sans'" transform="translate(637.169249 395.245747) rotate(-40)">2021–22</text>
     </g>
    </g>
    <g id="xtick_11">
     <g id="line2d_11"/>
     <g id="text_11">
      <text style="font-size: 11px; font-family: 'DejaVu Sans'" transform="translate(701.415402 395.245747) rotate(-40)">2022–23</text>
     </g>
    </g>
    <g id="xtick_12">
     <g id="line2d_12"/>
     <g id="text_12">
      <text style="font-size: 11px; font-family: 'DejaVu Sans'" transform="translate(765.661556 395.245747) rotate(-40)">2023–24</text>
     </g>
    </g>
   </g>
   <g id="matplotlib.axis_2">
    <g id="ytick_1">
     <g id="line2d_13">
      <path d="M 77.76 354.816
L 829.44 354.816
" clip-path="url(#pe3115c5a43)" style="fill: none; stroke: #b0b0b0; stroke-opacity: 0.2; stroke-width: 0.8; stroke-linecap: square"/>
     </g>
     <g id="line2d_14"/>
     <g id="text_13">
      <text style="font-size: 11px; font-family: 'DejaVu Sans'; text-anchor: end" x="74.26" y="358.994711" transform="rotate(-0 74.26 358.994711)">0</text>
     </g>
    </g>
    <g id="ytick_2">
     <g id="line2d_15">
      <path d="M 77.76 300.544
L 829.44 300.544
" clip-path="url(#pe3115c5a43)" style="fill: none; stroke: #b0b0b0; stroke-opacity: 0.2; stroke-width: 0.8; stroke-linecap: square"/>
     </g>
     <g id="line2d_16"/>
     <g id="text_14">
      <text style="font-size: 11px; font-family: 'DejaVu Sans'; text-anchor: end" x="74.26" y="304.722711" transform="rotate(-0 74.26 304.722711)">30</text>
     </g>
    </g>
    <g id="ytick_3">
     <g id="line2d_17">
      <path d="M 77.76 246.272
L 829.44 246.272
" clip-path="url(#pe3115c5a43)" style="fill: none; stroke: #b0b0b0; stroke-opacity: 0.2; stroke-width: 0.8; stroke-linecap: square"/>
     </g>
     <g id="line2d_18"/>
     <g id="text_15">
      <text style="font-size: 11px; font-family: 'DejaVu Sans'; text-anchor: end" x="74.26" y="250.450711" transform="rotate(-0 74.26 250.450711)">60</text>
     </g>
    </g>
    <g id="ytick_4">
     <g id="line2d_19">
      <path d="M 77.76 192
L 829.44 192
" clip-path="url(#pe3115c5a43)" style="fill: none; stroke: #b0b0b0; stroke-opacity: 0.2; stroke-width: 0.8; stroke-linecap: square"/>
     </g>
     <g id="line2d_20"/>
     <g id="text_16">
      <text style="font-size: 11px; font-family: 'DejaVu Sans'; text-anchor: end" x="74.26" y="196.178711" transform="rotate(-0 74.26 196.178711)">90</text>
     </g>
    </g>
    <g id="ytick_5">
     <g id="line2d_21">
      <path d="M 77.76 137.728
L 829.44 137.728
" clip-path="url(#pe3115c5a43)" style="fill: none; stroke: #b0b0b0; stroke-opacity: 0.2; stroke-width: 0.8; stroke-linecap: square"/>
     </g>
     <g id="line2d_22"/>
     <g id="text_17">
      <text style="font-size: 11px; font-family: 'DejaVu Sans'; text-anchor: end" x="74.26" y="141.906711" transform="rotate(-0 74.26 141.906711)">120</text>
     </g>
    </g>
    <g id="text_18">
     <text style="font-size: 11px; font-family: 'DejaVu Sans'; text-anchor: middle" x="37.621172" y="232.704" transform="rotate(-90 37.621172 232.704)">Rice output · lakh tonnes</text>
    </g>
   </g>
   <g id="line2d_23">
    <path d="M 97.033846 183.008939
L 161.28 217.091755
L 225.526154 176.713387
L 289.772308 248.533333
L 354.018462 177.636011
L 418.264615 236.304043
L 482.510769 214.902784
L 546.756923 178.341547
L 611.003077 155.836757
L 675.249231 186.735616
L 739.495385 138.940075
L 803.741538 146.085888
" clip-path="url(#pe3115c5a43)" style="fill: none; stroke: #296a58; stroke-width: 2.8; stroke-linecap: square"/>
    <defs>
     <path id="m7c182fe275" d="M 0 3
C 0.795609 3 1.55874 2.683901 2.12132 2.12132
C 2.683901 1.55874 3 0.795609 3 0
C 3 -0.795609 2.683901 -1.55874 2.12132 -2.12132
C 1.55874 -2.683901 0.795609 -3 0 -3
C -0.795609 -3 -1.55874 -2.683901 -2.12132 -2.12132
C -2.683901 -1.55874 -3 -0.795609 -3 0
C -3 0.795609 -2.683901 1.55874 -2.12132 2.12132
C -1.55874 2.683901 -0.795609 3 0 3
z
" style="stroke: #296a58"/>
    </defs>
    <g clip-path="url(#pe3115c5a43)">
     <use xlink:href="#m7c182fe275" x="97.033846" y="183.008939" style="fill: #296a58; stroke: #296a58"/>
     <use xlink:href="#m7c182fe275" x="161.28" y="217.091755" style="fill: #296a58; stroke: #296a58"/>
     <use xlink:href="#m7c182fe275" x="225.526154" y="176.713387" style="fill: #296a58; stroke: #296a58"/>
     <use xlink:href="#m7c182fe275" x="289.772308" y="248.533333" style="fill: #296a58; stroke: #296a58"/>
     <use xlink:href="#m7c182fe275" x="354.018462" y="177.636011" style="fill: #296a58; stroke: #296a58"/>
     <use xlink:href="#m7c182fe275" x="418.264615" y="236.304043" style="fill: #296a58; stroke: #296a58"/>
     <use xlink:href="#m7c182fe275" x="482.510769" y="214.902784" style="fill: #296a58; stroke: #296a58"/>
     <use xlink:href="#m7c182fe275" x="546.756923" y="178.341547" style="fill: #296a58; stroke: #296a58"/>
     <use xlink:href="#m7c182fe275" x="611.003077" y="155.836757" style="fill: #296a58; stroke: #296a58"/>
     <use xlink:href="#m7c182fe275" x="675.249231" y="186.735616" style="fill: #296a58; stroke: #296a58"/>
     <use xlink:href="#m7c182fe275" x="739.495385" y="138.940075" style="fill: #296a58; stroke: #296a58"/>
     <use xlink:href="#m7c182fe275" x="803.741538" y="146.085888" style="fill: #296a58; stroke: #296a58"/>
    </g>
   </g>
   <g id="patch_3">
    <path d="M 77.76 354.816
L 829.44 354.816
" style="fill: none; stroke: #b8b8aa; stroke-width: 0.8; stroke-linejoin: miter; stroke-linecap: square"/>
   </g>
   <g id="text_19">
    <text style="font-weight: 700; font-size: 11px; font-family: 'DejaVu Sans'; text-anchor: middle; fill: #234c43" x="161.28" y="207.091755" transform="rotate(-0 161.28 207.091755)">76.13</text>
   </g>
   <g id="text_20">
    <text style="font-weight: 700; font-size: 11px; font-family: 'DejaVu Sans'; text-anchor: middle; fill: #234c43" x="289.772308" y="238.533333" transform="rotate(-0 289.772308 238.533333)">58.75</text>
   </g>
   <g id="text_21">
    <text style="font-weight: 700; font-size: 11px; font-family: 'DejaVu Sans'; text-anchor: middle; fill: #234c43" x="739.495385" y="128.940075" transform="rotate(-0 739.495385 128.940075)">119.33</text>
   </g>
   <g id="text_22">
    <text style="font-weight: 700; font-size: 11px; font-family: 'DejaVu Sans'; text-anchor: middle; fill: #234c43" x="803.741538" y="168.085888" transform="rotate(-0 803.741538 168.085888)">115.38</text>
   </g>
  </g>
  <g id="text_23">
   <text style="font-weight: 700; font-size: 11px; font-family: 'DejaVu Sans'; text-anchor: start; fill: #985a34" x="77.76" y="36.864" transform="rotate(-0 77.76 36.864)">UTKAL  /  FOOD &amp; FARMING</text>
  </g>
  <g id="text_24">
   <text style="font-weight: 700; font-size: 22px; font-family: 'DejaVu Sans'; text-anchor: start; fill: #234c43" x="77.76" y="71.424" transform="rotate(-0 77.76 71.424)">Odisha’s rice harvest: growth and annual setbacks</text>
  </g>
  <g id="text_25">
   <text style="font-size: 10px; font-family: 'DejaVu Sans'; text-anchor: start; fill: #52564e" x="77.76" y="430.848" transform="rotate(-0 77.76 430.848)">Source: Odisha Agriculture Statistics 2023–24, p.90. Every year shown; historical-table precision retained.</text>
  </g>
  <g id="text_26">
   <text style="font-size: 10px; font-family: 'DejaVu Sans'; text-anchor: start; fill: #52564e" x="77.76" y="447.4368" transform="rotate(-0 77.76 447.4368)">Ten-year comparison uses 2013–14 → 2023–24. Rice output is distinct from paddy output and farmer income.</text>
  </g>
 </g>
 <defs>
  <clipPath id="pe3115c5a43">
   <rect x="77.76" y="110.592" width="751.68" height="244.224"/>
  </clipPath>
 </defs>
</svg>
